<svg xmlns="http://www.w3.org/2000/svg" width="1280" height="720" viewBox="0 0 1280 720">
  <defs>
    <linearGradient id="bg" x1="0" y1="0" x2="1" y2="1">
      <stop offset="0%" stop-color="#0b1020"/>
      <stop offset="100%" stop-color="#0f172a"/>
    </linearGradient>
  </defs>
  <rect fill="url(#bg)" width="1280" height="720"/>
  <g font-family="Inter,system-ui,Segoe UI,Arial">
    <text x="48" y="72" font-size="34" fill="#ffffff" font-weight="800">Dashboard</text>
    <text x="48" y="104" font-size="16" fill="#94a3b8">Your goals, habits, and progress at a glance</text>
  </g>
  <g transform="translate(48,140)">
    <rect width="1184" height="520" rx="18" fill="#0b1220" stroke="#1f2937"/>
    <g transform="translate(24,24)">
      <rect width="350" height="200" rx="14" fill="#0f172a" stroke="#1f2937"/>
      <text x="16" y="32" font-size="16" fill="#e5e7eb" font-family="Inter">Goals</text>
      <rect x="16" y="56" width="320" height="20" rx="6" fill="#1f2937"/>
      <rect x="16" y="84" width="280" height="20" rx="6" fill="#1f2937"/>
      <rect x="16" y="112" width="300" height="20" rx="6" fill="#1f2937"/>
    </g>
    <g transform="translate(396,24)">
      <rect width="764" height="200" rx="14" fill="#0f172a" stroke="#1f2937"/>
      <text x="16" y="32" font-size="16" fill="#e5e7eb" font-family="Inter">Weekly Progress</text>
      <rect x="16" y="56" width="730" height="12" rx="6" fill="#1f2937"/>
      <rect x="16" y="76" width="730" height="12" rx="6" fill="#1f2937"/>
      <rect x="16" y="96" width="530" height="12" rx="6" fill="#1f2937"/>
      <rect x="16" y="116" width="460" height="12" rx="6" fill="#1f2937"/>
    </g>
    <g transform="translate(24,248)">
      <rect width="1136" height="224" rx="14" fill="#0f172a" stroke="#1f2937"/>
      <text x="16" y="32" font-size="16" fill="#e5e7eb" font-family="Inter">Today</text>
      <rect x="16" y="56" width="340" height="18" rx="6" fill="#1f2937"/>
      <rect x="16" y="82" width="420" height="18" rx="6" fill="#1f2937"/>
      <rect x="16" y="108" width="520" height="18" rx="6" fill="#1f2937"/>
      <rect x="16" y="134" width="280" height="18" rx="6" fill="#1f2937"/>
    </g>
  </g>
</svg>
